<svg width="293" height="112" viewBox="0 0 293 112" fill="none" xmlns="http://www.w3.org/2000/svg">
<path d="M138.292 67.8187C138.001 67.1218 137.609 66.2361 137.116 65.1618C136.651 64.0874 136.143 62.9259 135.591 61.6773C135.039 60.4287 134.444 59.1511 133.805 57.8444C133.196 56.5087 132.615 55.2601 132.063 54.0987C131.511 52.9081 130.989 51.8483 130.495 50.9191C130.031 49.9899 129.653 49.2785 129.363 48.7849C129.043 52.2113 128.782 55.928 128.579 59.9351C128.375 63.9132 128.201 67.9348 128.056 72H123.918C124.034 69.3867 124.165 66.7588 124.31 64.1164C124.455 61.445 124.615 58.8317 124.789 56.2764C124.993 53.6921 125.196 51.1804 125.399 48.7413C125.631 46.3022 125.878 43.9938 126.14 41.816H129.842C130.626 43.0936 131.468 44.6036 132.368 46.3458C133.268 48.088 134.168 49.9173 135.068 51.8338C135.969 53.7212 136.84 55.6231 137.682 57.5396C138.524 59.427 139.293 61.1547 139.99 62.7227C140.687 61.1547 141.457 59.427 142.299 57.5396C143.141 55.6231 144.012 53.7212 144.912 51.8338C145.812 49.9173 146.712 48.088 147.612 46.3458C148.513 44.6036 149.355 43.0936 150.139 41.816H153.841C154.828 51.5434 155.569 61.6047 156.062 72H151.924C151.779 67.9348 151.605 63.9132 151.402 59.9351C151.199 55.928 150.937 52.2113 150.618 48.7849C150.327 49.2785 149.935 49.9899 149.442 50.9191C148.977 51.8483 148.469 52.9081 147.917 54.0987C147.366 55.2601 146.77 56.5087 146.132 57.8444C145.522 59.1511 144.941 60.4287 144.389 61.6773C143.838 62.9259 143.315 64.0874 142.821 65.1618C142.357 66.2361 141.979 67.1218 141.689 67.8187H138.292Z" fill="#2C1A4D"/>
<path d="M161.162 60.7191C161.162 58.7156 161.453 56.9733 162.033 55.4924C162.614 53.9825 163.384 52.7339 164.342 51.7467C165.3 50.7594 166.403 50.019 167.652 49.5253C168.901 49.0317 170.178 48.7849 171.485 48.7849C174.534 48.7849 176.871 49.7431 178.497 51.6596C180.123 53.547 180.937 56.4361 180.937 60.3271C180.937 60.5013 180.937 60.7336 180.937 61.024C180.937 61.2853 180.922 61.5321 180.893 61.7644H165.387C165.561 64.1164 166.244 65.9022 167.434 67.1218C168.625 68.3413 170.483 68.9511 173.009 68.9511C174.432 68.9511 175.623 68.835 176.581 68.6027C177.568 68.3413 178.309 68.0945 178.802 67.8622L179.369 71.2596C178.875 71.5209 178.004 71.7967 176.755 72.0871C175.536 72.3775 174.142 72.5227 172.574 72.5227C170.599 72.5227 168.886 72.2323 167.434 71.6516C166.011 71.0418 164.835 70.2142 163.906 69.1689C162.977 68.1236 162.28 66.8895 161.816 65.4667C161.38 64.0148 161.162 62.4323 161.162 60.7191ZM176.712 58.4978C176.741 56.6684 176.276 55.173 175.318 54.0116C174.389 52.821 173.097 52.2258 171.441 52.2258C170.512 52.2258 169.685 52.4145 168.959 52.792C168.262 53.1404 167.667 53.605 167.173 54.1858C166.679 54.7665 166.287 55.4344 165.997 56.1893C165.736 56.9443 165.561 57.7138 165.474 58.4978H176.712Z" fill="#2C1A4D"/>
<path d="M201.39 54.1422C200.896 53.7357 200.185 53.3437 199.256 52.9662C198.327 52.5887 197.31 52.4 196.207 52.4C195.045 52.4 194.044 52.6178 193.201 53.0533C192.388 53.4598 191.721 54.0406 191.198 54.7956C190.675 55.5215 190.298 56.3926 190.065 57.4089C189.833 58.4252 189.717 59.5141 189.717 60.6756C189.717 63.3179 190.37 65.365 191.677 66.8169C192.984 68.2397 194.726 68.9511 196.904 68.9511C198.007 68.9511 198.922 68.9076 199.648 68.8204C200.403 68.7043 200.983 68.5881 201.39 68.472V54.1422ZM201.39 38.8978L205.441 38.2009V71.3467C204.511 71.608 203.321 71.8693 201.869 72.1307C200.417 72.392 198.748 72.5227 196.86 72.5227C195.118 72.5227 193.55 72.2468 192.156 71.6951C190.762 71.1434 189.572 70.3594 188.585 69.3431C187.597 68.3268 186.828 67.0927 186.276 65.6409C185.754 64.16 185.492 62.5049 185.492 60.6756C185.492 58.9333 185.71 57.3363 186.146 55.8844C186.61 54.4326 187.278 53.184 188.149 52.1387C189.02 51.0933 190.08 50.2803 191.329 49.6996C192.606 49.1188 194.058 48.8284 195.684 48.8284C196.991 48.8284 198.138 49.0027 199.125 49.3511C200.141 49.6996 200.896 50.0335 201.39 50.3529V38.8978Z" fill="#2C1A4D"/>
<path d="M216.193 49.3511H224.774V52.7484H216.193V63.2018C216.193 64.3342 216.28 65.2779 216.454 66.0329C216.629 66.7588 216.89 67.3396 217.238 67.7751C217.587 68.1816 218.022 68.472 218.545 68.6462C219.068 68.8204 219.678 68.9076 220.374 68.9076C221.594 68.9076 222.567 68.7769 223.293 68.5156C224.048 68.2252 224.57 68.0219 224.861 67.9058L225.645 71.2596C225.238 71.4628 224.527 71.7096 223.51 72C222.494 72.3194 221.333 72.4791 220.026 72.4791C218.487 72.4791 217.209 72.2904 216.193 71.9129C215.206 71.5064 214.407 70.9111 213.798 70.1271C213.188 69.3431 212.752 68.3849 212.491 67.2524C212.259 66.091 212.142 64.7553 212.142 63.2453V43.0356L216.193 42.3387V49.3511Z" fill="#2C1A4D"/>
<path d="M228.24 60.7191C228.24 58.7156 228.53 56.9733 229.111 55.4924C229.691 53.9825 230.461 52.7339 231.419 51.7467C232.377 50.7594 233.481 50.019 234.729 49.5253C235.978 49.0317 237.256 48.7849 238.562 48.7849C241.611 48.7849 243.949 49.7431 245.575 51.6596C247.201 53.547 248.014 56.4361 248.014 60.3271C248.014 60.5013 248.014 60.7336 248.014 61.024C248.014 61.2853 247.999 61.5321 247.97 61.7644H232.464C232.639 64.1164 233.321 65.9022 234.512 67.1218C235.702 68.3413 237.56 68.9511 240.087 68.9511C241.509 68.9511 242.7 68.835 243.658 68.6027C244.645 68.3413 245.386 68.0945 245.88 67.8622L246.446 71.2596C245.952 71.5209 245.081 71.7967 243.832 72.0871C242.613 72.3775 241.219 72.5227 239.651 72.5227C237.677 72.5227 235.963 72.2323 234.512 71.6516C233.089 71.0418 231.913 70.2142 230.984 69.1689C230.054 68.1236 229.357 66.8895 228.893 65.4667C228.457 64.0148 228.24 62.4323 228.24 60.7191ZM243.789 58.4978C243.818 56.6684 243.353 55.173 242.395 54.0116C241.466 52.821 240.174 52.2258 238.519 52.2258C237.589 52.2258 236.762 52.4145 236.036 52.792C235.339 53.1404 234.744 53.605 234.25 54.1858C233.757 54.7665 233.365 55.4344 233.074 56.1893C232.813 56.9443 232.639 57.7138 232.552 58.4978H243.789Z" fill="#2C1A4D"/>
<path d="M263.676 72.5227C261.847 72.5227 260.235 72.2323 258.841 71.6516C257.477 71.0708 256.315 70.2578 255.357 69.2124C254.428 68.1671 253.731 66.933 253.266 65.5102C252.802 64.0584 252.569 62.4613 252.569 60.7191C252.569 58.9769 252.816 57.3798 253.31 55.928C253.833 54.4761 254.558 53.2276 255.488 52.1822C256.417 51.1079 257.549 50.2803 258.885 49.6996C260.25 49.0898 261.76 48.7849 263.415 48.7849C264.431 48.7849 265.447 48.872 266.464 49.0462C267.48 49.2204 268.453 49.4963 269.382 49.8738L268.467 53.3147C267.857 53.0243 267.146 52.792 266.333 52.6178C265.549 52.4436 264.707 52.3564 263.807 52.3564C261.542 52.3564 259.8 53.0678 258.58 54.4907C257.39 55.9135 256.794 57.9896 256.794 60.7191C256.794 61.9387 256.925 63.0566 257.186 64.0729C257.477 65.0892 257.912 65.9603 258.493 66.6862C259.103 67.4121 259.872 67.9784 260.801 68.3849C261.731 68.7624 262.863 68.9511 264.199 68.9511C265.273 68.9511 266.246 68.8495 267.117 68.6462C267.988 68.443 268.67 68.2252 269.164 67.9929L269.73 71.3902C269.498 71.5354 269.164 71.6806 268.729 71.8258C268.293 71.9419 267.799 72.0436 267.248 72.1307C266.696 72.2468 266.101 72.3339 265.462 72.392C264.852 72.4791 264.257 72.5227 263.676 72.5227Z" fill="#2C1A4D"/>
<path d="M274.079 72V38.8978L278.13 38.2009V49.7867C278.885 49.4963 279.683 49.2785 280.525 49.1333C281.396 48.9591 282.253 48.872 283.095 48.872C284.895 48.872 286.391 49.1333 287.581 49.656C288.772 50.1496 289.716 50.861 290.412 51.7902C291.138 52.6904 291.646 53.7793 291.937 55.0569C292.227 56.3345 292.372 57.7428 292.372 59.2818V72H288.322V60.1529C288.322 58.7591 288.22 57.5686 288.017 56.5813C287.843 55.5941 287.538 54.7956 287.102 54.1858C286.667 53.576 286.086 53.1404 285.36 52.8791C284.634 52.5887 283.734 52.4436 282.66 52.4436C282.224 52.4436 281.774 52.4726 281.309 52.5307C280.845 52.5887 280.395 52.6613 279.959 52.7484C279.553 52.8065 279.175 52.8791 278.827 52.9662C278.507 53.0533 278.275 53.1259 278.13 53.184V72H274.079Z" fill="#2C1A4D"/>
<circle cx="56" cy="56" r="56" fill="#6F42C1"/>
<circle cx="71" cy="65" r="39" fill="#8C68CD"/>
<circle cx="63" cy="57" r="28" fill="#A98EDA"/>
</svg>
