<svg width="16" height="16" viewBox="0 0 16 16" fill="none" xmlns="http://www.w3.org/2000/svg">
<rect width="16" height="16" rx="8" fill="url(#paint0_linear_1_1022)"/>
<path d="M13.4376 13.8681C12.0104 15.1912 10.0997 16.0001 7.99999 16.0001C5.99697 16.0001 4.16589 15.264 2.76251 14.0475C3.23115 13.9677 3.63616 13.7584 4.02856 13.5556L4.02864 13.5555C4.48665 13.3188 4.96025 13.0741 5.53162 13.0391C5.5654 13.037 5.5991 13.036 5.63178 13.036C5.93181 13.036 6.17156 13.1245 6.28954 13.2789C6.36182 13.3735 6.38681 13.4902 6.36285 13.6188L6.36661 13.6131L6.35219 13.6653L6.35209 13.6657C6.3373 13.72 6.32222 13.7728 6.30741 13.8247L6.30737 13.8248L6.30702 13.826C6.27054 13.9536 6.23543 14.0764 6.21019 14.2045C6.45505 13.5562 6.9614 12.8217 7.45575 12.1047L7.45577 12.1047L7.45617 12.1041C7.99513 11.3224 8.5045 10.5836 8.56953 10.0792C8.56419 10.0808 8.55886 10.0824 8.55353 10.084L8.553 10.0842C8.17055 10.1985 7.80679 10.2066 7.48478 10.2137C7.16079 10.2209 6.88101 10.2271 6.645 10.3325C6.44648 10.4212 6.34353 10.5676 6.24399 10.7091L6.24396 10.7092C6.15308 10.8383 6.05911 10.9719 5.8937 11.0607C5.82483 11.0976 5.74599 11.1164 5.65938 11.1164C5.36337 11.1164 5.02926 10.8866 5.01068 10.7583C5.00002 10.6848 5.09455 10.6441 5.204 10.597L5.20488 10.5966C5.26752 10.5696 5.33601 10.5401 5.39063 10.5016C5.1771 10.5912 5.02143 10.63 4.87972 10.63C4.82961 10.63 4.78061 10.6248 4.73411 10.6144C4.33984 10.5268 3.90455 9.95869 3.9996 9.49782C4.04419 9.28161 4.23141 9.21425 4.44818 9.1363L4.44835 9.13625C4.6789 9.05329 4.94018 8.95928 5.14053 8.6725C5.28508 8.4655 5.3919 8.06577 5.51559 7.60295C5.57957 7.36351 5.64785 7.10801 5.72728 6.86117C5.73346 6.65389 5.71568 6.43152 5.69848 6.21645L5.69846 6.21622C5.67695 5.94735 5.65508 5.674 5.67934 5.42155C5.59012 5.33171 5.50185 5.22639 5.43003 5.12484C5.35075 5.01272 5.22335 4.80858 5.23762 4.67282C5.08522 4.61795 4.93148 4.4898 4.81378 4.31905C4.705 4.16112 4.64773 3.994 4.6617 3.87756C4.52954 3.82847 4.38144 3.69147 4.25301 3.49889C4.13493 3.32179 4.06079 3.13452 4.06164 3.01696C3.85006 2.88261 3.68226 2.61424 3.60047 2.46496C3.48524 2.25468 3.4123 2.04676 3.43079 1.98136C3.43825 1.95501 3.45764 1.95215 3.46564 1.95215C3.46833 1.95215 3.47114 1.95243 3.47399 1.95298C3.90291 2.03916 4.67605 2.79852 4.84462 2.99451C5.24761 3.09777 5.59974 3.51305 5.66159 3.70994C5.82702 3.72933 6.18417 3.98465 6.27554 4.22645C6.35369 4.27351 6.45314 4.34259 6.54768 4.42109C6.68207 4.39646 6.82255 4.39189 6.96307 4.40277C6.79245 4.29637 6.59974 4.22492 6.35309 4.22492L6.31372 4.2252L6.33272 4.20401C6.39361 4.13608 6.4673 4.07303 6.55086 4.016C6.47145 3.90644 6.40192 3.77926 6.34156 3.63367C6.2523 3.41836 6.19163 3.21469 6.13813 3.03501C6.10282 2.91648 6.06947 2.80451 6.03343 2.709L6.0274 2.69296L6.04447 2.69198C6.06521 2.6908 6.08742 2.69017 6.11052 2.69017C6.56983 2.69017 7.44812 2.90948 7.84847 3.69235C8.06684 3.70957 8.27301 3.76196 8.4632 3.84877C8.70129 3.95744 8.89297 4.11874 9.04097 4.29676C9.06278 4.10558 9.11499 3.91047 9.16903 3.70851L9.16915 3.70806L9.1692 3.70788C9.24003 3.44319 9.31327 3.16945 9.31711 2.89279L9.31731 2.87703L9.33259 2.88072C9.78579 2.99047 10.2598 3.8291 10.3471 4.6754C10.3536 4.73897 10.3579 4.80054 10.3602 4.86004C10.5613 4.7961 10.7783 4.76074 10.9976 4.76074C11.2282 4.76074 11.4432 4.79895 11.6372 4.87439C11.8601 4.96102 12.0638 5.07141 12.2608 5.17816L12.262 5.1788C12.6425 5.38505 13.0019 5.57978 13.4466 5.57978C13.5561 5.57978 13.669 5.56765 13.7822 5.54374L13.8088 5.53809L13.7959 5.562C13.5793 5.96333 12.952 6.39111 12.0336 6.49926C12.4062 6.63518 12.744 6.83302 12.9896 7.0711C13.1142 7.192 13.2273 7.31408 13.3367 7.43212L13.3368 7.43224C13.715 7.84056 14.0418 8.19323 14.6409 8.28644L14.6894 8.29404L14.6433 8.31071C14.3769 8.40707 14.0891 8.45594 13.788 8.45594H13.7878C13.5093 8.45594 13.2221 8.41286 12.9484 8.33179C13.1107 8.48027 13.2599 8.6544 13.3933 8.85267C13.4285 8.90506 13.4628 8.95668 13.4964 9.00739L13.4967 9.00789L13.497 9.00836L13.5193 9.04197C13.9186 9.6448 14.2341 10.1209 15.0199 10.3929L15.0464 10.4021L15.0219 10.4157C14.8577 10.5078 14.6415 10.5565 14.3965 10.5565C14.1696 10.5565 13.9265 10.5152 13.6922 10.4416C13.7107 10.4749 13.7286 10.5089 13.7459 10.5437C14.0081 11.0721 14.0726 11.6656 14.1245 12.1425L14.1247 12.1447C14.1578 12.4483 14.1863 12.7105 14.257 12.8874L14.2688 12.9166L14.2401 12.9034C13.7681 12.685 13.4985 12.5444 13.2283 12.1118C13.2807 12.3651 13.31 12.6605 13.3348 12.9101L13.335 12.9118C13.3547 13.11 13.3717 13.281 13.395 13.379L13.4035 13.4145L13.375 13.3917C13.0244 13.1112 12.8389 12.8081 12.6595 12.515L12.6594 12.5149L12.6594 12.5149C12.5682 12.3658 12.4792 12.2205 12.3716 12.0882C12.4367 12.6248 12.5148 13.1503 12.6376 13.6127C12.9424 13.6803 13.2103 13.7694 13.4376 13.8681Z" fill="white"/>
<defs>
<linearGradient id="paint0_linear_1_1022" x1="1.792" y1="1.872" x2="13.952" y2="14.064" gradientUnits="userSpaceOnUse">
<stop stop-color="#C0D88C"/>
<stop offset="1" stop-color="#1A5FC7"/>
</linearGradient>
</defs>
</svg>
