<svg width="500" height="500" viewBox="0 0 500 500" fill="none" xmlns="http://www.w3.org/2000/svg">
<rect width="500" height="500" fill="#E9ECEF"/>
<path fill-rule="evenodd" clip-rule="evenodd" d="M215.654 153.485C217.89 153.075 220.228 152.999 222.566 153.18C219.727 151.409 216.52 150.22 212.416 150.22L211.76 150.225L212.077 149.872C213.09 148.742 214.316 147.693 215.706 146.744C214.385 144.921 213.228 142.804 212.224 140.382C210.738 136.799 209.729 133.41 208.839 130.42L208.838 130.42C208.251 128.447 207.696 126.584 207.096 124.995L206.996 124.728L207.28 124.712C207.625 124.692 207.995 124.681 208.379 124.681C216.022 124.681 230.637 128.331 237.299 141.358C240.933 141.645 244.364 142.517 247.529 143.961C251.491 145.769 254.68 148.453 257.143 151.416C257.506 148.234 258.375 144.988 259.274 141.627L259.276 141.62L259.277 141.617C260.455 137.212 261.674 132.657 261.738 128.053L261.742 127.791L261.996 127.852C269.537 129.678 277.424 143.634 278.877 157.717C278.986 158.774 279.057 159.799 279.096 160.789C282.442 159.725 286.054 159.137 289.703 159.137C293.539 159.137 297.118 159.772 300.345 161.028C304.054 162.469 307.444 164.306 310.722 166.082L310.723 166.083L310.743 166.093C317.074 169.525 323.055 172.766 330.455 172.766C332.276 172.766 334.156 172.564 336.039 172.166L336.481 172.072L336.266 172.47C332.663 179.148 322.225 186.267 306.941 188.066C313.141 190.328 318.764 193.62 322.85 197.582C324.924 199.594 326.806 201.625 328.625 203.59L328.627 203.592C334.922 210.386 340.358 216.255 350.328 217.806L351.135 217.932L350.368 218.21C345.935 219.813 341.146 220.626 336.135 220.626H336.133C331.498 220.626 326.718 219.909 322.164 218.56C324.865 221.031 327.347 223.929 329.567 227.228C330.156 228.103 330.727 228.964 331.289 229.811L331.294 229.819L331.665 230.378C338.31 240.409 343.558 248.331 356.635 252.859L357.076 253.011L356.669 253.238C353.937 254.771 350.338 255.581 346.261 255.581C342.485 255.581 338.44 254.893 334.542 253.668C334.849 254.223 335.147 254.789 335.435 255.368C339.798 264.16 340.872 274.036 341.735 281.973L341.739 282.009C342.289 287.061 342.763 291.424 343.94 294.367L344.136 294.854L343.659 294.634C335.804 290.999 331.318 288.661 326.823 281.462C327.693 285.676 328.182 290.592 328.595 294.745L328.596 294.757L328.598 294.774L328.598 294.774C328.925 298.071 329.208 300.917 329.596 302.548L329.738 303.139L329.263 302.759C323.43 298.092 320.342 293.049 317.357 288.171L317.356 288.17L317.356 288.169L317.356 288.169C315.837 285.688 314.357 283.271 312.567 281.069C314.351 295.79 316.728 310.013 322.052 319.846L321.706 320.076C317.631 314.983 309.254 312.401 296.806 312.401C276.799 312.401 249.42 319.015 229.429 323.845L229.377 323.857C220.674 325.959 213.158 327.774 207.774 328.705L207.533 328.747L207.529 328.503C207.297 315.381 219.227 298.078 230.764 281.344L230.764 281.344L230.765 281.343L230.771 281.334C239.74 268.325 248.216 256.031 249.298 247.638C249.209 247.665 249.121 247.692 249.032 247.718L249.023 247.721L249.023 247.721C242.659 249.623 236.606 249.758 231.247 249.876C225.856 249.995 221.2 250.098 217.273 251.854C213.97 253.33 212.256 255.765 210.6 258.12L210.6 258.121C209.087 260.271 207.524 262.493 204.771 263.97C203.625 264.585 202.313 264.897 200.872 264.897C195.946 264.897 190.386 261.074 190.077 258.938C189.9 257.715 191.473 257.038 193.294 256.255L193.309 256.248C194.351 255.799 195.491 255.307 196.4 254.667C192.847 256.158 190.256 256.803 187.898 256.803C187.064 256.803 186.249 256.716 185.475 256.544C178.914 255.086 171.671 245.633 173.252 237.964C173.994 234.366 177.11 233.245 180.717 231.948L180.72 231.947C184.556 230.566 188.904 229.002 192.238 224.23C194.643 220.785 196.421 214.134 198.479 206.432C199.544 202.448 200.68 198.196 202.002 194.089C202.105 190.639 201.809 186.939 201.523 183.36L201.523 183.36L201.522 183.356C201.164 178.882 200.8 174.334 201.204 170.133C199.719 168.638 198.251 166.885 197.055 165.195C195.736 163.33 193.616 159.933 193.854 157.674C191.318 156.761 188.759 154.628 186.801 151.787C184.991 149.159 184.038 146.378 184.27 144.44C182.071 143.623 179.606 141.343 177.469 138.139C175.504 135.192 174.271 132.076 174.285 130.119C170.764 127.884 167.972 123.418 166.611 120.934C164.693 117.435 163.48 113.975 163.787 112.887C163.911 112.448 164.234 112.4 164.367 112.4C164.412 112.4 164.459 112.405 164.506 112.414C171.643 113.848 184.509 126.484 187.314 129.746C194.02 131.464 199.879 138.374 200.909 141.651C203.661 141.973 209.605 146.222 211.125 150.246C212.426 151.029 214.08 152.178 215.654 153.485Z" fill="#ADB5BD"/>
<path d="M385.105 387.486L384.715 387.128C373.782 377.088 363.594 373.177 348.382 373.177C347.233 373.177 346.034 373.2 344.817 373.248C338.068 373.506 330.761 374.986 323.695 376.418C316.051 377.965 308.828 379.427 302.387 379.427H302.385C300.477 379.427 298.698 379.293 297.098 379.028C289.535 377.774 284.887 374.305 284.349 369.511C283.963 366.939 286.403 359.976 289.403 352.682C275.024 353.347 261.724 356.518 246.594 360.126L246.589 360.127C239.368 361.85 231.9 363.63 223.666 365.3C215.698 366.916 207.871 367.736 200.403 367.736C185.564 367.736 175.945 364.488 174.112 361.279C173.893 360.896 173.548 359.631 173.125 357.746C164.971 359.698 156.723 360.899 149.359 361.263C147.727 361.344 146.121 361.384 144.585 361.384C127.145 361.384 115.698 356.1 110.561 345.678L110.425 345.402L110.731 345.378C121.617 344.492 135.03 340.848 140.743 334.69C128.077 331.221 118.21 322.004 114.312 309.976L114.152 309.484L114.609 309.726C120.935 313.097 128.932 314.806 138.38 314.806C142.384 314.806 146.722 314.496 151.272 313.885C159.667 312.757 166.819 309.061 173.734 305.487L173.736 305.486C181.357 301.547 189.238 297.474 198.746 296.892C199.308 296.857 199.869 296.84 200.413 296.84C205.405 296.84 209.395 298.313 211.358 300.883C212.561 302.457 212.977 304.399 212.578 306.539L212.641 306.443L212.401 307.313L212.399 307.319C212.153 308.223 211.902 309.101 211.655 309.964L211.655 309.966L211.649 309.986C210.78 313.028 209.957 315.906 209.596 319.109C211.613 318.793 213.695 318.446 215.842 318.067C226.807 316.132 236.167 313.93 245.218 311.799C262.387 307.758 277.214 304.268 296.364 304.268H296.576C326.717 304.308 345.018 317.282 345.018 322.976C345.018 324.138 344.538 326.508 343.726 329.572C345.72 329.484 347.724 329.438 349.724 329.438C352.093 329.438 354.447 329.503 356.719 329.63C382.351 331.072 388.195 344.647 389.516 350.417L389.603 350.796L389.239 350.659C384.69 348.943 378.853 347.959 373.225 347.959C368.24 347.959 363.864 348.712 360.521 350.142C376.811 355.003 384.125 374.739 385.064 386.958L385.105 387.486Z" fill="#6C757D"/>
<path d="M226.99 345.3C227.039 345.575 226.446 345.822 225.211 346.039C223.977 346.255 223.29 346.275 223.15 346.096L218.781 340.528L219.857 346.654C219.899 346.891 219.309 347.116 218.088 347.33C216.879 347.543 216.255 347.531 216.213 347.294L213.898 334.116C213.864 333.919 214.365 333.729 215.403 333.547C215.81 333.476 216.289 333.432 216.842 333.416C217.405 333.385 217.763 333.457 217.915 333.634L222.133 339.147L221.046 332.962C221.003 332.712 221.591 332.48 222.813 332.266C224.034 332.051 224.667 332.069 224.71 332.318L226.99 345.3Z" fill="#E9ECEF"/>
<path d="M234.93 344.555C233.092 344.878 231.482 344.538 230.101 343.535C228.733 342.53 227.846 340.872 227.44 338.56C227.032 336.236 227.307 334.374 228.266 332.973C229.238 331.571 230.65 330.707 232.502 330.381C234.366 330.054 235.974 330.381 237.324 331.362C238.672 332.33 239.555 334.009 239.975 336.399C240.393 338.776 240.12 340.652 239.156 342.026C238.19 343.387 236.782 344.23 234.93 344.555ZM233.126 334.17C232.496 334.281 232.015 334.663 231.683 335.317C231.364 335.969 231.297 336.82 231.482 337.871C231.664 338.908 232.008 339.673 232.515 340.167C233.018 340.647 233.599 340.829 234.255 340.714C234.925 340.596 235.414 340.219 235.722 339.583C236.043 338.945 236.111 338.1 235.927 337.049C235.742 335.999 235.384 335.229 234.851 334.741C234.332 334.25 233.757 334.06 233.126 334.17Z" fill="#E9ECEF"/>
<path d="M248.194 342.063C246.999 342.273 246.379 342.246 246.332 341.984L244.09 329.219C244.012 328.773 244.176 328.514 244.583 328.442L248.05 327.833C249.994 327.492 251.463 327.647 252.457 328.298C253.465 328.947 254.102 330.033 254.37 331.556C254.591 332.817 254.387 334.044 253.757 335.237C253.443 335.834 252.919 336.359 252.186 336.813C251.454 337.267 250.562 337.586 249.512 337.77L250.131 341.296C250.159 341.454 249.929 341.609 249.441 341.763C248.964 341.9 248.549 342 248.194 342.063ZM248.377 331.309L248.923 334.421L249.179 334.376C249.639 334.296 250.001 334.083 250.266 333.739C250.53 333.395 250.616 332.96 250.524 332.435C250.431 331.909 250.254 331.555 249.992 331.371C249.742 331.184 249.342 331.14 248.79 331.236L248.377 331.309Z" fill="#E9ECEF"/>
<path d="M268.365 338.134C268.404 338.357 267.761 338.585 266.434 338.818C265.108 339.051 264.425 339.056 264.386 338.833L263.59 334.302L260.832 334.787L261.628 339.317C261.667 339.541 261.024 339.769 259.697 340.002C258.371 340.235 257.688 340.24 257.649 340.016L255.355 326.956C255.307 326.68 255.946 326.426 257.272 326.193C258.598 325.96 259.286 325.981 259.334 326.257L260.147 330.886L262.905 330.402L262.099 325.812C262.067 325.628 262.372 325.439 263.015 325.245C263.351 325.159 263.684 325.087 264.012 325.029L265.024 324.892C265.694 324.856 266.046 324.93 266.078 325.113L268.365 338.134Z" fill="#E9ECEF"/>
<path d="M276.27 337.294C274.431 337.617 272.822 337.277 271.441 336.274C270.073 335.269 269.186 333.611 268.78 331.299C268.372 328.975 268.647 327.112 269.606 325.712C270.578 324.309 271.99 323.446 273.841 323.12C275.706 322.793 277.314 323.12 278.664 324.101C280.011 325.069 280.895 326.748 281.315 329.138C281.733 331.515 281.46 333.391 280.496 334.765C279.53 336.126 278.122 336.969 276.27 337.294ZM274.466 326.909C273.836 327.02 273.355 327.402 273.023 328.056C272.704 328.708 272.637 329.559 272.822 330.61C273.004 331.647 273.348 332.412 273.854 332.906C274.358 333.386 274.939 333.568 275.595 333.453C276.265 333.335 276.754 332.958 277.062 332.322C277.383 331.683 277.451 330.839 277.267 329.788C277.082 328.738 276.723 327.968 276.191 327.48C275.671 326.989 275.097 326.799 274.466 326.909Z" fill="#E9ECEF"/>
<path d="M289.975 334.359C290.021 334.621 289.394 334.867 288.094 335.095C286.794 335.324 286.12 335.307 286.074 335.044L284.337 325.155L281.974 325.57C281.75 325.61 281.54 325.335 281.342 324.747C281.252 324.465 281.18 324.173 281.127 323.871C281.074 323.569 281.042 323.27 281.03 322.974C281.016 322.354 281.121 322.025 281.344 321.985L289.913 320.48C290.136 320.441 290.347 320.715 290.545 321.303C290.635 321.585 290.706 321.877 290.759 322.179C290.812 322.481 290.845 322.78 290.856 323.076C290.87 323.696 290.766 324.026 290.542 324.065L288.238 324.47L289.975 334.359Z" fill="#E9ECEF"/>
<path d="M299.873 333.148C298.035 333.471 296.425 333.131 295.044 332.128C293.676 331.123 292.789 329.465 292.383 327.153C291.975 324.829 292.25 322.967 293.209 321.566C294.181 320.164 295.593 319.3 297.445 318.975C299.31 318.647 300.917 318.974 302.267 319.955C303.615 320.923 304.499 322.602 304.919 324.992C305.336 327.369 305.063 329.245 304.1 330.619C303.134 331.98 301.725 332.823 299.873 333.148ZM298.07 322.764C297.439 322.874 296.958 323.257 296.626 323.911C296.308 324.562 296.241 325.413 296.425 326.464C296.607 327.501 296.952 328.267 297.458 328.76C297.962 329.24 298.542 329.422 299.199 329.307C299.869 329.189 300.357 328.812 300.665 328.176C300.986 327.538 301.055 326.693 300.87 325.643C300.686 324.592 300.327 323.822 299.794 323.334C299.275 322.843 298.7 322.653 298.07 322.764Z" fill="#E9ECEF"/>
</svg>
