<svg width="16" height="16" viewBox="0 0 16 16" fill="none" xmlns="http://www.w3.org/2000/svg">
<mask id="mask0_10_702" style="mask-type:alpha" maskUnits="userSpaceOnUse" x="1" y="0" width="14" height="16">
<path d="M7.5 0.288675C7.8094 0.110042 8.1906 0.110042 8.5 0.288675L14.4282 3.71132C14.7376 3.88996 14.9282 4.22008 14.9282 4.57735V11.4226C14.9282 11.7799 14.7376 12.11 14.4282 12.2887L8.5 15.7113C8.1906 15.89 7.8094 15.89 7.5 15.7113L1.5718 12.2887C1.2624 12.11 1.0718 11.7799 1.0718 11.4226V4.57735C1.0718 4.22008 1.2624 3.88996 1.5718 3.71132L7.5 0.288675Z" fill="#D9D9D9"/>
</mask>
<g mask="url(#mask0_10_702)">
<path d="M7.5 0.288675C7.8094 0.110042 8.1906 0.110042 8.5 0.288675L14.4282 3.71132C14.7376 3.88996 14.9282 4.22008 14.9282 4.57735V11.4226C14.9282 11.7799 14.7376 12.11 14.4282 12.2887L8.5 15.7113C8.1906 15.89 7.8094 15.89 7.5 15.7113L1.5718 12.2887C1.2624 12.11 1.0718 11.7799 1.0718 11.4226V4.57735C1.0718 4.22008 1.2624 3.88996 1.5718 3.71132L7.5 0.288675Z" fill="url(#paint0_linear_10_702)"/>
<path d="M13.3152 11.9248C14.6333 11.9988 16.5419 11.8504 17.3314 11.767L17.0266 8.15936C16.5519 8.32209 15.2424 8.78911 13.8027 9.3553C12.363 9.9215 10.4319 10.5858 9.64635 10.8472L9.72107 11.4765C10.3699 11.5951 11.9971 11.8507 13.3152 11.9248Z" fill="#B4B4B4"/>
<path d="M17.3314 11.7671C16.5419 11.8505 14.6333 11.9989 13.3152 11.9248C12.0191 11.852 10.4243 11.6036 9.75447 11.4827C10.0185 11.4109 11.5274 11.3344 12.1143 11.3469C12.1875 11.3484 12.2958 11.3528 12.4338 11.3584C13.305 11.3939 15.3627 11.4776 17.2834 11.1989L17.3314 11.7671Z" fill="#818181"/>
<path d="M8.6851 7.78581C9.06942 7.68769 9.85375 7.35651 10.1979 7.20319L14.1843 9.07372C13.0599 9.25089 10.5679 9.62364 9.59481 9.69723C8.62172 9.77083 6.93381 9.5371 6.21149 9.41103L6.1195 8.59331C6.81456 8.36503 8.30077 7.88394 8.6851 7.78581Z" fill="#B4B4B4"/>
<path d="M6.29831 9.42583C6.54413 9.33265 6.7794 9.24625 6.90655 9.20652C7.11268 9.1421 7.59486 9.15888 8.2047 9.18009C8.56255 9.19254 8.96437 9.20652 9.38016 9.20652C9.9025 9.20652 11.3808 8.85493 12.8723 8.45801L14.1843 9.07364C13.0599 9.25081 10.5679 9.62356 9.59481 9.69715C8.65886 9.76794 7.0616 9.5544 6.29831 9.42583Z" fill="#818181"/>
<path d="M8.4554 9.04192C11.5055 10.4729 14.8643 11.6212 16.1624 12.0164L16.4691 8.51041L6.12489 6.35367L3.66151 4.20715H2.48604L3.12999 6.35367C3.63425 6.6535 5.4053 7.61091 8.4554 9.04192Z" fill="#D9D9D9"/>
<path d="M16.3734 9.60412L16.4691 8.51044L6.12489 6.3537L5.13733 5.49316L4.11126 5.96528L16.3734 9.60412Z" fill="#818181"/>
<path d="M5.94202 6.19428C5.49871 6.15761 4.96881 6.1288 4.41794 6.1288C3.83912 6.1288 3.40361 6.17828 3.09576 6.23944L2.48607 4.20715H3.66155L5.94202 6.19428Z" fill="#FF7F50"/>
</g>
<defs>
<linearGradient id="paint0_linear_10_702" x1="1.30677" y1="4.49402" x2="15.3944" y2="11.7928" gradientUnits="userSpaceOnUse">
<stop stop-color="#377CA3"/>
<stop offset="1" stop-color="#98D9ED"/>
</linearGradient>
</defs>
</svg>
