<svg viewBox="0 0 533 251" fill="none" xmlns="http://www.w3.org/2000/svg">
<path d="M265.474 166.934C264.229 166.934 263.334 166.078 262.789 164.365C262.244 162.575 261.972 160.629 261.972 158.528C261.972 156.426 262.088 154.091 262.322 151.523C262.633 148.876 263.061 145.296 263.606 140.782L268.626 96.4162L252.982 99.802C252.048 99.9577 251.231 100.113 250.53 100.269C249.907 100.347 249.44 100.386 249.129 100.386C248.273 100.386 247.65 100.113 247.261 99.5685C246.872 99.0237 246.716 98.3621 246.794 97.5837C246.872 95.6379 247.144 93.8477 247.611 92.2132C248.156 90.5787 248.818 89.2555 249.596 88.2436C250.374 87.154 251.231 86.6091 252.165 86.6091H277.266C283.259 86.6091 287.929 86.4924 291.276 86.2589C294.701 86.0254 297.231 85.8308 298.865 85.6751C300.577 85.4416 301.862 85.3248 302.718 85.3248C303.496 85.3248 304.041 85.4805 304.352 85.7919C304.664 86.1032 304.858 86.7259 304.936 87.6599C305.014 89.2166 304.78 90.8511 304.236 92.5634C303.769 94.2758 303.107 95.7546 302.251 97C301.473 98.1675 300.655 98.7512 299.799 98.7512C299.254 98.7512 298.437 98.6734 297.347 98.5177C296.258 98.2842 295.012 98.0897 293.611 97.934L282.52 96.4162L274.814 166.934H265.474Z" fill="url(#paint0_linear_3_54)"/>
<path d="M312.284 163.198L309.482 145.569C312.362 138.096 315.281 131.636 318.239 126.188C321.274 120.662 324.348 116.381 327.462 113.345C330.575 110.31 333.728 108.792 336.919 108.792C338.709 108.792 339.993 109.376 340.772 110.543C341.55 111.633 341.939 113.034 341.939 114.746C341.939 116.303 341.744 117.821 341.355 119.299C341.044 120.7 340.538 121.868 339.838 122.802C339.215 123.736 338.436 124.203 337.502 124.203C336.646 124.203 335.673 123.931 334.584 123.386C333.572 122.841 332.171 122.569 330.381 122.569C329.213 122.569 327.734 123.775 325.944 126.188C324.154 128.601 322.286 131.831 320.34 135.878C318.472 139.848 316.799 144.245 315.32 149.071C313.841 153.819 312.829 158.528 312.284 163.198ZM302.477 167.635C301.465 167.635 300.687 167.44 300.142 167.051C299.675 166.739 299.403 165.844 299.325 164.365C299.325 162.887 299.519 160.513 299.909 157.244L305.396 108.675H313.568C314.736 108.675 315.787 109.531 316.721 111.244C317.655 112.956 318.122 114.902 318.122 117.081C318.122 118.093 317.81 119.689 317.188 121.868C316.643 123.97 315.981 126.227 315.203 128.64C314.425 130.975 313.724 133.037 313.101 134.827L310.066 144.401L314.386 143.701L312.284 163.198C312.206 163.976 311.739 164.677 310.883 165.3C310.027 165.844 309.015 166.272 307.848 166.584C306.758 166.973 305.707 167.245 304.695 167.401C303.684 167.557 302.944 167.635 302.477 167.635Z" fill="url(#paint1_linear_3_54)"/>
<path d="M352.137 167.868C347.779 167.868 344.665 166.117 342.797 162.614C340.929 159.034 339.995 154.052 339.995 147.67C339.995 141.988 340.813 136.773 342.447 132.025C344.159 127.277 346.456 123.191 349.335 119.766C352.215 116.264 355.562 113.579 359.376 111.711C363.19 109.765 367.237 108.792 371.518 108.792C374.865 108.792 377.901 109.259 380.625 110.193C383.427 111.049 385.801 111.944 387.747 112.878L384.361 125.137C382.259 123.736 379.885 122.452 377.239 121.284C374.67 120.117 372.258 119.222 370 118.599C367.821 117.898 366.187 117.548 365.097 117.548C362.917 117.548 360.894 118.638 359.026 120.817C357.236 122.919 355.796 125.876 354.706 129.69C353.694 133.426 353.188 137.746 353.188 142.65C353.188 147.164 353.5 150.589 354.122 152.924C354.823 155.259 355.912 156.426 357.391 156.426C358.403 156.426 360.115 155.298 362.528 153.041C364.941 150.706 367.86 146.853 371.285 141.482C374.709 136.112 378.329 128.834 382.143 119.65L385.412 130.041C381.209 139.381 377.2 146.814 373.386 152.34C369.572 157.866 365.914 161.836 362.412 164.249C358.909 166.662 355.484 167.868 352.137 167.868ZM380.041 167.168C378.484 167.168 377.55 166.428 377.239 164.949C376.928 163.393 376.772 161.758 376.772 160.046C376.772 158.723 376.928 157.088 377.239 155.142C377.628 153.196 378.095 151.095 378.64 148.838C379.185 146.58 379.769 144.362 380.391 142.183L382.96 133.426L379.574 130.391L382.376 112.761C384.867 112.372 387.046 111.866 388.914 111.244C390.86 110.621 392.456 110.076 393.701 109.609C395.024 109.142 395.958 108.909 396.503 108.909C397.359 108.909 397.787 109.376 397.787 110.31C397.787 110.699 397.281 112.372 396.269 115.33C395.335 118.21 394.285 121.907 393.117 126.421C392.027 130.936 391.21 135.839 390.665 141.132L388.214 167.168H380.041Z" fill="url(#paint2_linear_3_54)"/>
<path d="M420.925 167.868C417.656 167.868 415.01 166.662 412.986 164.249C411.04 161.758 409.834 158.178 409.367 153.508L406.798 127.355C406.642 125.565 406.37 123.775 405.981 121.985C405.669 120.117 405.241 118.638 404.697 117.548C404.152 116.459 403.685 115.719 403.295 115.33C402.906 114.863 402.712 114.318 402.712 113.695C402.712 113.073 403.14 112.489 403.996 111.944C404.93 111.321 406.059 110.777 407.382 110.31C408.705 109.765 410.028 109.376 411.351 109.142C412.675 108.831 413.764 108.675 414.62 108.675C416.021 108.675 417.15 109.415 418.006 110.893C418.862 112.372 419.524 115.291 419.991 119.65L423.026 149.305C423.26 151.562 423.649 153.274 424.194 154.442C424.817 155.609 425.673 156.193 426.762 156.193C427.619 156.193 428.786 155.648 430.265 154.558C431.822 153.469 433.378 151.64 434.935 149.071C436.57 146.503 437.932 143.078 439.021 138.797C440.111 134.516 440.656 129.184 440.656 122.802C440.656 120.934 440.383 119.494 439.839 118.482C439.372 117.47 439.138 116.575 439.138 115.797C439.138 115.096 439.566 114.318 440.422 113.462C441.279 112.606 442.329 111.827 443.575 111.127C444.898 110.426 446.182 109.843 447.427 109.376C448.751 108.909 449.801 108.675 450.58 108.675C451.514 108.675 452.448 108.948 453.382 109.492C454.316 110.037 454.783 111.399 454.783 113.579C454.783 117.315 454.238 121.596 453.148 126.421C452.059 131.169 450.502 135.956 448.478 140.782C446.532 145.607 444.158 150.083 441.356 154.208C438.554 158.333 435.441 161.641 432.016 164.132C428.592 166.623 424.894 167.868 420.925 167.868Z" fill="url(#paint3_linear_3_54)"/>
<path d="M476.559 167.868C470.566 167.868 465.934 166 462.665 162.264C459.396 158.45 457.762 153.235 457.762 146.619C457.762 141.093 458.54 136.034 460.097 131.442C461.654 126.849 463.833 122.841 466.635 119.416C469.437 115.992 472.706 113.345 476.442 111.477C480.256 109.609 484.381 108.675 488.818 108.675C494.11 108.675 498.158 109.804 500.96 112.061C503.762 114.318 505.163 117.548 505.163 121.751C505.163 126.032 503.723 129.768 500.843 132.959C498.041 136.151 493.955 138.875 488.584 141.132C483.291 143.389 476.948 145.296 469.554 146.853L468.036 139.848C472.317 139.303 476.247 138.369 479.828 137.046C483.408 135.723 486.288 133.971 488.467 131.792C490.647 129.535 491.736 126.888 491.736 123.853C491.736 121.751 491.308 120.156 490.452 119.066C489.674 117.976 488.234 117.431 486.132 117.431C482.941 117.431 480.217 118.599 477.96 120.934C475.78 123.269 474.107 126.305 472.939 130.041C471.85 133.777 471.305 137.746 471.305 141.949C471.305 147.631 472.161 151.445 473.873 153.391C475.664 155.259 478.271 156.193 481.696 156.193C485.276 156.193 488.39 155.648 491.036 154.558C493.76 153.391 496.095 152.184 498.041 150.939C498.664 150.55 499.209 150.239 499.676 150.005C500.143 149.772 500.532 149.655 500.843 149.655C501.232 149.655 501.544 149.81 501.777 150.122C502.011 150.433 502.127 150.783 502.127 151.173C502.127 152.574 501.505 154.208 500.259 156.076C499.014 157.944 497.224 159.773 494.889 161.563C492.632 163.354 489.946 164.833 486.833 166C483.72 167.245 480.295 167.868 476.559 167.868Z" fill="url(#paint4_linear_3_54)"/>
<path d="M516.532 167.635C515.131 167.635 514.042 166.778 513.263 165.066C512.485 163.354 512.135 161.369 512.213 159.112C512.29 156.465 512.524 153.313 512.913 149.655C513.302 145.997 513.691 142.377 514.081 138.797L517.35 111.244C517.817 107.741 517.933 104.628 517.7 101.904C517.466 99.1793 517.155 96.7665 516.766 94.665C516.377 92.5634 516.182 90.7732 516.182 89.2944C516.182 88.4382 516.844 87.6988 518.167 87.0761C519.568 86.3756 521.164 85.8308 522.954 85.4416C524.744 84.9746 526.262 84.7411 527.507 84.7411C528.83 84.7411 529.998 85.714 531.01 87.6599C532.021 89.5279 532.527 91.7073 532.527 94.1979C532.527 94.7428 532.45 96.2606 532.294 98.7512C532.138 101.242 531.827 104.083 531.36 107.274L527.624 134.127C526.845 139.731 526.301 145.335 525.989 150.939C525.678 156.465 525.25 162.03 524.705 167.635H516.532Z" fill="url(#paint5_linear_3_54)"/>
<mask id="mask0_3_54" style="mask-type:alpha" maskUnits="userSpaceOnUse" x="16" y="5" width="219" height="241">
<path d="M108 10.1036C118.829 3.85148 132.171 3.85148 143 10.1036L216.686 52.6464C227.515 58.8985 234.186 70.453 234.186 82.9573V168.043C234.186 180.547 227.515 192.101 216.686 198.354L143 240.896C132.171 247.149 118.829 247.149 108 240.896L34.3138 198.354C23.4848 192.101 16.8138 180.547 16.8138 168.043V82.9573C16.8138 70.453 23.4848 58.8985 34.3138 52.6464L108 10.1036Z" fill="#D9D9D9"/>
</mask>
<g mask="url(#mask0_3_54)">
<path d="M108 10.1036C118.829 3.85148 132.171 3.85148 143 10.1036L216.686 52.6464C227.515 58.8985 234.186 70.453 234.186 82.9573V168.043C234.186 180.547 227.515 192.101 216.686 198.354L143 240.896C132.171 247.149 118.829 247.149 108 240.896L34.3138 198.354C23.4848 192.101 16.8138 180.547 16.8138 168.043V82.9573C16.8138 70.453 23.4848 58.8985 34.3138 52.6464L108 10.1036Z" fill="url(#paint6_linear_3_54)"/>
<path d="M208.882 187.07C229.56 188.232 259.501 185.904 271.887 184.595L267.105 128C259.657 130.553 239.115 137.879 216.53 146.761C193.944 155.644 163.651 166.065 151.327 170.166L152.499 180.038C162.678 181.898 188.204 185.907 208.882 187.07Z" fill="#B4B4B4"/>
<path d="M271.887 184.595C259.501 185.904 229.56 188.232 208.882 187.07C188.55 185.927 163.53 182.031 153.023 180.133C157.164 179.007 180.836 177.807 190.043 178.003C191.191 178.027 192.889 178.096 195.055 178.184C208.721 178.74 241.003 180.053 271.134 175.682L271.887 184.595Z" fill="#818181"/>
<path d="M136.248 122.14C142.277 120.601 154.581 115.405 159.98 113L222.516 142.344C204.878 145.123 165.784 150.971 150.519 152.125C135.254 153.28 108.774 149.613 97.4431 147.636L96 134.808C106.904 131.226 130.219 123.679 136.248 122.14Z" fill="#B4B4B4"/>
<path d="M98.8051 147.869C102.661 146.407 106.352 145.052 108.347 144.429C111.581 143.418 119.145 143.681 128.712 144.014C134.325 144.209 140.629 144.429 147.152 144.429C155.346 144.429 178.537 138.913 201.934 132.686L222.516 142.344C204.878 145.123 165.784 150.971 150.519 152.125C135.836 153.236 110.779 149.886 98.8051 147.869Z" fill="#818181"/>
<path d="M132.644 141.845C180.493 164.294 233.184 182.307 253.548 188.507L258.359 133.507L96.0845 99.6735L57.4402 66H39L49.102 99.6735C57.0126 104.377 84.7959 119.396 132.644 141.845Z" fill="#D9D9D9"/>
<path d="M256.858 150.665L258.359 133.507L96.0845 99.6735L80.5921 86.1738L64.4956 93.5802L256.858 150.665Z" fill="#818181"/>
<path d="M93.2151 97.1731C86.2607 96.5977 77.9479 96.1458 69.3061 96.1458C60.2258 96.1458 53.3938 96.922 48.5645 97.8815L39 66H57.4402L93.2151 97.1731Z" fill="#FF7F50"/>
</g>
<defs>
<linearGradient id="paint0_linear_3_54" x1="247" y1="136" x2="536" y2="142" gradientUnits="userSpaceOnUse">
<stop stop-color="#98D9ED"/>
<stop offset="1" stop-color="#BFE3EE"/>
</linearGradient>
<linearGradient id="paint1_linear_3_54" x1="247" y1="136" x2="536" y2="142" gradientUnits="userSpaceOnUse">
<stop stop-color="#98D9ED"/>
<stop offset="1" stop-color="#BFE3EE"/>
</linearGradient>
<linearGradient id="paint2_linear_3_54" x1="247" y1="136" x2="536" y2="142" gradientUnits="userSpaceOnUse">
<stop stop-color="#98D9ED"/>
<stop offset="1" stop-color="#BFE3EE"/>
</linearGradient>
<linearGradient id="paint3_linear_3_54" x1="247" y1="136" x2="536" y2="142" gradientUnits="userSpaceOnUse">
<stop stop-color="#98D9ED"/>
<stop offset="1" stop-color="#BFE3EE"/>
</linearGradient>
<linearGradient id="paint4_linear_3_54" x1="247" y1="136" x2="536" y2="142" gradientUnits="userSpaceOnUse">
<stop stop-color="#98D9ED"/>
<stop offset="1" stop-color="#BFE3EE"/>
</linearGradient>
<linearGradient id="paint5_linear_3_54" x1="247" y1="136" x2="536" y2="142" gradientUnits="userSpaceOnUse">
<stop stop-color="#98D9ED"/>
<stop offset="1" stop-color="#BFE3EE"/>
</linearGradient>
<linearGradient id="paint6_linear_3_54" x1="20.5" y1="70.5" x2="241.5" y2="185" gradientUnits="userSpaceOnUse">
<stop stop-color="#377CA3"/>
<stop offset="1" stop-color="#98D9ED"/>
</linearGradient>
</defs>
</svg>
